{"glyphs":{":":{"x_min":0,"x_max":260,"ha":260,"o":"m 45 30 q 45 63 64 82 q 83 101 105 101 q 122 101 135 88 q 147 75 147 56 q 147 41 140 24 q 132 7 119 -3 q 105 -14 89 -14 q 65 -14 55 1 q 45 17 45 30 z m 147 382 q 147 417 166 435 q 185 454 207 454 q 224 454 236 441 q 248 427 248 408 q 248 383 232 360 q 215 338 191 338 q 167 338 157 354 q 147 369 147 382 z"},"$":{"x_min":0,"x_max":469,"ha":469,"o":"m 385 721 l 428 721 l 413 670 q 483 657 534 617 q 507 567 489 516 l 462 518 q 463 558 452 589 q 440 619 401 628 l 331 383 q 389 317 410 273 q 430 229 430 193 q 430 163 417 129 q 404 94 378 63 q 351 33 309 11 q 268 -11 213 -17 l 190 -95 l 148 -95 l 170 -17 q 131 -13 100 -2 q 68 8 32 32 q 44 60 55 86 q 65 112 76 147 l 104 144 q 105 120 108 104 q 110 88 118 74 q 125 59 142 48 q 158 37 186 32 l 268 319 l 253 340 q 245 349 232 366 q 219 383 208 395 q 168 443 168 499 q 168 540 192 579 q 216 618 262 643 q 309 668 371 670 z m 298 421 l 361 635 q 334 637 310 625 q 285 614 269 589 q 253 564 253 530 q 253 496 265 473 q 276 449 298 421 z m 299 277 l 227 30 q 300 41 323 83 q 345 125 345 161 q 345 197 332 224 q 318 252 299 277 z"},"?":{"x_min":0,"x_max":396,"ha":396,"o":"m 180 544 l 150 544 q 171 620 178 647 q 242 690 317 690 q 351 690 380 677 q 410 664 427 639 q 444 613 444 577 q 444 530 419 490 q 395 451 337 393 q 285 341 259 308 q 232 275 216 245 q 200 214 183 168 l 147 168 q 159 218 179 261 q 200 304 220 334 q 241 365 271 402 q 322 465 343 499 q 363 533 363 568 q 363 602 342 619 q 320 636 292 636 q 249 636 222 607 q 196 578 180 544 z m 90 30 q 90 68 109 84 q 129 101 149 101 q 166 101 178 88 q 191 75 191 56 q 191 41 184 24 q 176 7 163 -3 q 149 -14 133 -14 q 111 -14 101 0 q 90 15 90 30 z"},"<":{"x_min":0,"x_max":667,"ha":667,"o":"m 115 353 l 646 576 l 646 506 l 201 324 l 646 141 l 646 72 l 115 295 z"},"'":{"x_min":0,"x_max":219,"ha":219,"o":"m 156 403 l 171 548 q 179 620 193 654 q 207 688 248 688 q 256 688 265 685 q 274 682 280 674 q 285 667 285 654 q 285 640 277 619 q 269 598 245 547 l 177 403 z"},"=":{"x_min":0,"x_max":667,"ha":667,"o":"m 121 467 l 652 467 l 652 403 l 121 403 z m 121 243 l 652 243 l 652 179 l 121 179 z"},"a":{"x_min":0,"x_max":469,"ha":469,"o":"m 442 119 l 458 98 q 429 69 394 42 q 359 15 332 0 q 305 -14 294 -14 q 271 -14 271 14 q 271 28 279 59 q 287 91 290 95 q 294 113 300 129 l 298 131 q 257 79 206 32 q 155 -14 114 -14 q 81 -14 57 18 q 33 50 33 111 q 33 173 59 235 q 85 296 131 346 q 177 395 237 425 q 297 454 364 454 q 372 454 411 449 q 451 444 457 444 l 463 432 q 435 374 410 298 q 385 223 370 163 q 355 103 355 92 q 355 72 367 72 q 383 72 431 110 q 439 118 442 119 z m 371 399 q 333 411 312 411 q 272 411 236 386 q 200 362 172 320 q 144 277 128 225 q 112 173 112 122 q 112 83 125 65 q 138 47 151 47 q 170 47 209 79 q 249 111 282 162 q 304 194 319 233 q 333 272 361 366 q 362 369 366 382 q 370 395 371 399 z"},"L":{"x_min":0,"x_max":594,"ha":594,"o":"m 168 647 l 175 676 q 254 670 321 670 q 408 670 480 676 l 473 647 q 467 646 448 643 q 409 637 389 631 q 370 625 362 616 q 354 606 347 585 q 330 534 297 424 q 264 315 234 209 q 205 104 191 45 l 405 45 q 444 45 462 52 q 480 58 495 79 q 510 99 544 160 q 545 164 549 170 q 552 175 554 180 l 596 180 q 573 121 537 13 q 537 10 535 2 q 532 -5 532 -5 q 531 -5 365 -2 l 253 0 q 214 0 177 0 q 140 0 83 -1 q 25 -2 -8 -5 l -1 24 q 0 24 18 27 q 58 34 75 42 q 93 49 100 61 q 108 72 117 100 q 128 134 157 235 q 186 335 201 388 q 215 441 233 505 q 250 568 255 589 q 260 609 260 612 q 260 620 253 625 q 248 629 224 635 q 201 640 187 642 z"},"3":{"x_min":0,"x_max":468,"ha":468,"o":"m 217 555 l 186 556 q 199 592 212 645 q 284 687 350 687 q 406 687 440 656 q 473 625 473 576 q 473 521 435 483 q 397 446 332 413 q 432 372 432 264 q 432 215 413 166 q 394 117 356 75 q 319 33 269 8 q 219 -17 161 -17 q 117 -17 86 -7 q 56 3 23 20 q 39 52 46 72 q 53 92 63 129 l 92 129 q 94 99 99 81 q 104 63 123 48 q 143 33 182 33 q 235 33 273 66 q 310 99 328 147 q 346 196 346 241 q 346 303 308 339 q 270 375 190 373 l 199 407 q 261 420 304 439 q 348 458 374 488 q 400 518 400 556 q 400 591 378 610 q 356 628 326 628 q 294 628 272 615 q 249 602 237 587 q 226 572 217 555 z"},";":{"x_min":0,"x_max":260,"ha":260,"o":"m 37 19 l 30 40 q 64 67 102 109 q 133 94 141 70 q 150 46 150 29 q 150 -1 134 -36 q 119 -70 87 -104 q 55 -137 10 -166 l -8 -140 q 23 -116 50 -83 q 77 -50 77 -13 q 77 24 37 19 z m 146 382 q 146 416 165 435 q 184 454 206 454 q 223 454 235 441 q 248 428 248 408 q 248 393 241 376 q 233 359 220 349 q 207 338 190 338 q 167 338 156 354 q 146 369 146 382 z"},"J":{"x_min":0,"x_max":427,"ha":427,"o":"m 260 647 l 267 676 q 281 675 291 674 q 300 674 325 672 q 371 670 399 670 q 404 670 538 675 l 561 676 l 553 647 q 549 646 535 643 q 494 635 478 630 q 463 625 456 616 q 449 607 443 590 l 425 536 l 383 403 q 367 353 346 274 q 316 167 302 126 q 288 86 270 60 q 259 42 241 29 q 224 15 201 3 q 178 -8 153 -14 q 127 -20 102 -20 q 67 -20 47 -13 q 27 -7 1 7 q 14 43 23 77 q 33 111 41 147 q 42 148 43 158 q 45 168 46 170 l 86 170 l 83 109 q 83 71 94 49 q 105 27 135 27 q 160 27 176 44 q 192 61 203 89 q 214 117 232 177 q 257 257 288 365 q 319 474 335 539 q 352 604 352 613 q 352 619 347 624 q 343 628 319 634 q 296 639 287 641 q 282 642 279 643 q 276 644 273 644 q 270 645 265 646 q 261 647 260 647 z"},"V":{"x_min":0,"x_max":677,"ha":677,"o":"m 151 647 l 159 676 q 221 670 300 670 q 355 670 450 676 l 442 647 q 436 645 424 643 q 382 635 366 626 q 350 618 342 601 q 334 586 332 565 q 329 545 321 447 q 320 432 315 380 q 311 327 307 286 q 303 245 299 201 q 294 157 293 140 l 295 138 q 313 163 322 174 q 331 186 365 232 q 399 278 427 315 q 495 408 551 480 q 649 608 649 621 q 649 631 638 636 q 626 641 598 645 q 589 645 585 647 l 592 676 q 655 670 714 670 q 762 670 818 676 l 810 646 q 780 639 762 634 q 745 628 733 618 q 726 611 720 606 q 715 601 704 587 q 692 573 671 546 q 649 520 616 477 q 567 414 512 344 q 457 273 419 224 q 381 175 367 157 q 353 138 255 8 q 252 3 243 -8 q 235 -19 234 -20 l 200 -20 q 203 11 205 33 q 207 55 210 98 q 214 140 217 171 q 219 203 223 242 l 240 449 q 245 509 248 550 q 250 592 250 598 q 250 616 237 624 q 225 631 174 642 q 161 644 151 647 z"},"\"":{"x_min":0,"x_max":417,"ha":417,"o":"m 355 403 l 370 548 q 377 618 391 653 q 405 688 447 688 q 455 688 464 685 q 473 682 478 674 q 484 667 484 654 q 484 639 477 622 q 471 605 444 547 l 376 403 z m 174 403 l 189 548 q 196 618 210 653 q 225 688 266 688 q 281 688 292 680 q 303 673 303 654 q 303 640 295 619 q 287 598 263 547 l 195 403 z"},"7":{"x_min":0,"x_max":468,"ha":468,"o":"m 564 674 l 555 643 q 531 602 486 518 q 440 434 387 331 q 333 228 284 131 q 235 33 211 -17 q 209 -17 204 -16 q 199 -16 192 -15 q 186 -15 181 -14 q 177 -14 169 -14 q 151 -14 129 -17 l 121 -5 q 156 49 176 82 q 235 178 300 288 q 365 398 366 400 q 379 422 399 458 q 419 493 444 537 q 470 580 481 597 q 301 601 264 597 q 251 596 241 591 q 230 586 219 572 q 208 558 191 530 q 187 522 185 520 l 151 520 q 188 604 212 676 q 226 675 233 675 q 241 674 273 672 q 327 670 387 670 q 484 670 564 674 z"},"S":{"x_min":0,"x_max":542,"ha":542,"o":"m 106 215 l 146 215 q 145 189 144 174 q 143 158 143 149 q 143 94 170 68 q 192 47 219 41 q 247 34 269 34 q 316 34 346 56 q 375 78 388 110 q 401 142 401 170 q 401 220 376 256 q 352 292 315 327 q 259 380 236 405 q 212 430 198 456 q 185 481 185 510 q 185 554 213 595 q 241 637 294 663 q 347 690 416 690 q 454 690 486 683 q 519 675 539 667 q 559 659 590 644 q 573 594 567 570 q 562 547 553 499 l 551 484 l 512 484 q 513 538 511 564 q 509 589 501 602 q 489 623 459 636 q 430 649 398 649 q 364 649 335 634 q 307 620 290 596 q 274 572 274 542 q 274 511 294 482 q 314 454 382 388 q 446 325 471 288 q 496 250 496 200 q 496 148 466 97 q 435 46 377 13 q 318 -20 239 -20 q 144 -20 56 30 q 70 72 77 95 q 83 117 90 146 q 97 174 106 215 z"},"}":{"x_min":0,"x_max":479,"ha":479,"o":"m 138 678 l 138 695 q 195 687 236 658 q 277 629 299 588 q 321 547 321 505 q 321 472 311 429 q 299 383 299 354 q 299 322 325 290 q 352 258 410 249 l 410 230 q 353 222 326 190 q 299 158 299 125 q 299 108 304 83 q 309 58 311 50 q 321 8 321 -26 q 321 -67 300 -108 q 279 -148 237 -178 q 195 -208 138 -216 l 138 -198 q 248 -171 248 -83 q 248 -58 236 -6 q 226 40 226 70 q 226 93 236 123 q 247 152 278 184 q 310 215 370 237 l 370 239 q 299 265 262 312 q 226 360 226 409 q 226 439 236 485 q 248 535 248 562 q 248 593 234 616 q 220 639 196 654 q 171 669 138 678 z"},"Z":{"x_min":0,"x_max":594,"ha":594,"o":"m 187 507 l 150 507 q 171 577 176 595 q 176 597 183 622 q 190 646 194 659 q 194 660 199 676 q 259 673 307 672 q 354 671 389 670 q 424 670 445 670 q 533 670 680 676 l 671 641 q 618 584 557 519 q 496 453 446 398 q 396 342 345 284 q 294 227 260 188 q 180 99 135 45 l 394 45 q 441 45 461 50 q 481 55 498 76 q 515 97 545 155 q 548 163 558 179 l 597 179 q 592 170 589 158 q 580 133 565 89 q 550 46 539 13 q 538 11 537 8 q 536 4 535 1 q 534 -2 533 -5 q 501 -3 392 -1 q 342 0 325 0 q 308 0 290 0 q 300 0 236 -1 q 171 -2 120 -3 q 68 -3 2 -5 l 11 29 q 18 40 32 52 q 95 120 141 171 q 188 222 227 265 q 265 307 332 383 q 399 458 403 462 q 451 517 477 545 q 502 573 516 589 q 531 605 546 623 l 332 623 q 293 623 276 621 q 259 619 247 611 q 235 603 225 585 q 215 567 198 530 q 189 514 187 507 z"},"x":{"x_min":0,"x_max":448,"ha":448,"o":"m 77 309 l 56 329 q 71 353 99 383 q 127 414 154 434 q 180 454 195 454 q 213 454 224 434 q 235 414 237 400 q 259 315 261 306 q 263 297 267 281 q 290 313 319 357 q 348 401 358 411 q 399 454 447 454 q 467 454 492 444 q 481 414 466 364 l 448 364 q 438 389 419 389 q 396 389 374 362 q 370 356 341 318 q 312 280 281 229 q 294 175 305 135 q 316 95 324 78 q 330 66 340 66 q 361 66 415 131 l 437 113 q 337 -14 292 -14 q 277 -14 270 -4 q 252 18 231 132 q 230 137 229 143 q 228 148 227 150 q 219 142 217 135 q 176 79 147 47 q 119 16 92 1 q 65 -14 34 -14 q 7 -14 -20 4 q -3 35 14 75 l 22 75 q 31 62 38 56 q 46 50 60 50 q 94 50 131 89 q 168 127 216 201 q 201 273 178 344 q 167 372 154 372 q 131 372 87 321 q 79 313 77 309 z"},")":{"x_min":0,"x_max":281,"ha":281,"o":"m -94 -211 l -81 -169 q -7 -111 50 -36 q 107 39 146 122 q 184 205 202 287 q 220 370 220 447 q 220 527 205 580 q 189 632 166 674 l 179 713 q 209 679 235 639 q 261 600 279 541 q 297 483 297 410 q 297 330 274 242 q 250 154 202 70 q 154 -15 80 -87 q 6 -159 -94 -211 z"},"&":{"x_min":0,"x_max":698,"ha":698,"o":"m 497 331 l 503 359 q 532 355 585 355 q 652 355 694 359 l 686 331 q 660 327 644 321 q 627 315 615 303 q 602 292 589 273 q 576 254 551 214 q 534 187 492 132 q 539 56 585 56 q 605 56 625 66 q 644 77 676 102 l 694 75 q 639 26 606 6 q 573 -14 543 -14 q 504 -14 479 8 q 454 29 427 67 q 384 31 336 9 q 288 -14 218 -14 q 116 -14 80 38 q 43 90 43 143 q 43 224 109 294 q 135 322 180 348 q 225 374 306 410 q 300 468 300 496 q 300 552 321 590 q 342 628 373 650 q 404 672 435 681 q 466 690 488 690 q 509 690 528 680 q 548 670 561 649 q 574 628 574 598 q 574 558 555 524 q 536 491 506 467 q 476 443 450 430 q 424 417 393 404 q 402 351 423 285 q 444 220 469 172 q 504 213 522 250 q 539 288 539 304 q 539 315 531 320 q 522 325 497 331 z m 388 443 q 506 491 506 590 q 506 625 490 637 q 475 650 460 650 q 437 650 409 623 q 382 596 382 511 q 382 480 388 443 z m 313 371 q 270 351 230 326 q 191 301 161 261 q 132 220 132 165 q 132 110 165 77 q 198 44 252 44 q 328 44 404 107 q 344 206 313 371 z"},"_":{"x_min":0,"x_max":500,"ha":500,"o":"m 506 -125 l -6 -125 l -6 -75 l 506 -75 z"},"v":{"x_min":0,"x_max":417,"ha":417,"o":"m 63 324 l 43 342 q 75 381 113 417 q 150 454 177 454 q 195 454 205 430 q 218 393 218 300 q 218 244 212 128 l 210 94 l 212 92 q 243 129 264 154 q 284 179 312 218 q 339 256 356 289 q 373 322 373 347 q 373 372 362 378 q 352 385 337 386 l 333 395 q 355 415 365 426 q 376 437 389 454 q 421 445 431 421 q 442 397 442 378 q 442 334 414 288 q 386 242 335 180 q 316 158 284 120 q 251 82 217 44 q 182 6 162 -14 l 134 -14 q 142 63 145 143 q 148 222 148 254 q 148 294 144 334 q 140 375 126 375 q 116 375 93 354 q 69 332 63 324 z"},"O":{"x_min":0,"x_max":688,"ha":688,"o":"m 81 222 q 81 309 116 393 q 150 478 210 545 q 270 612 347 651 q 424 690 504 690 q 601 690 659 629 q 717 569 717 451 q 717 352 681 265 q 645 178 583 115 q 522 51 445 15 q 368 -20 288 -20 q 201 -20 155 25 q 109 69 95 123 q 81 177 81 222 z m 178 233 q 178 173 198 127 q 217 82 252 57 q 288 32 336 32 q 412 32 477 95 q 543 157 582 255 q 621 352 621 446 q 621 511 602 556 q 582 601 548 622 q 515 644 473 644 q 416 644 361 607 q 307 570 266 509 q 225 448 202 375 q 178 302 178 233 z"},"(":{"x_min":0,"x_max":302,"ha":302,"o":"m 446 713 l 433 671 q 358 613 302 539 q 245 464 207 381 q 169 298 150 216 q 132 133 132 55 q 132 -22 147 -74 q 162 -126 186 -172 l 173 -211 q 141 -174 116 -135 q 91 -97 73 -39 q 55 19 55 92 q 55 172 78 260 q 102 347 149 431 q 197 515 271 588 q 346 662 446 713 z"},"C":{"x_min":0,"x_max":625,"ha":625,"o":"m 573 147 l 597 115 q 511 49 444 15 q 377 -20 301 -20 q 224 -20 175 19 q 126 57 105 113 q 84 168 84 221 q 84 311 118 395 q 153 479 215 547 q 277 614 357 652 q 437 690 522 690 q 619 690 710 642 q 697 608 686 570 q 674 532 659 467 l 622 469 q 624 506 624 541 q 624 587 611 604 q 598 623 568 633 q 539 643 508 643 q 443 643 384 608 q 325 572 280 513 q 234 455 208 381 q 182 307 182 235 q 182 178 204 135 q 226 93 262 70 q 298 48 340 48 q 396 48 452 75 q 507 102 573 147 z"},"W":{"x_min":0,"x_max":969,"ha":969,"o":"m 151 647 l 158 676 q 253 670 300 670 q 346 670 452 676 l 444 647 q 395 635 379 630 q 363 625 354 617 q 346 608 342 592 q 330 540 313 341 q 312 325 305 257 q 298 188 298 185 q 298 180 296 167 q 294 153 294 152 l 296 150 q 319 185 341 215 q 362 246 408 310 q 454 375 507 449 q 561 524 577 548 q 580 593 580 600 q 580 612 575 618 q 571 624 556 629 q 542 633 503 642 q 492 644 482 647 l 491 676 q 564 670 632 670 q 645 670 667 671 q 688 671 721 673 q 753 674 782 676 l 774 647 l 754 642 q 721 635 705 629 q 689 623 682 614 q 674 604 671 589 q 667 574 664 537 l 658 486 l 643 335 q 641 307 635 253 q 630 200 629 187 q 629 186 628 177 q 627 168 627 160 q 626 151 626 150 l 628 150 q 637 165 657 195 q 678 225 699 257 q 721 289 735 309 l 866 502 q 937 606 938 612 q 940 619 940 620 q 940 637 885 645 l 875 647 l 881 676 q 929 670 990 670 q 1051 670 1107 676 l 1101 647 q 1071 641 1054 635 q 1038 630 1024 619 q 1011 608 997 590 q 983 572 951 528 q 897 455 895 451 q 886 439 849 387 q 812 336 766 271 q 720 207 657 116 q 594 26 563 -20 l 530 -20 q 537 51 544 142 q 563 369 567 411 q 568 420 569 434 q 570 448 571 457 l 569 459 q 563 449 537 412 l 451 289 q 449 286 444 279 q 439 272 432 262 q 425 252 417 242 q 410 231 401 219 q 347 143 317 100 q 270 32 233 -20 l 200 -20 q 200 4 203 19 l 217 166 q 220 195 224 241 q 227 287 228 307 q 234 380 240 466 q 242 479 245 516 q 248 553 249 567 q 250 572 250 577 q 250 583 250 595 q 250 610 245 617 q 240 624 223 629 q 207 634 151 647 z"},"A":{"x_min":0,"x_max":667,"ha":667,"o":"m 634 24 l 626 -5 q 601 -3 575 -2 q 535 0 499 0 q 438 0 335 -5 l 341 24 q 427 42 438 62 q 444 72 451 121 q 458 170 461 209 q 403 211 318 211 q 280 211 254 209 q 248 201 245 198 q 243 194 238 188 q 228 174 193 127 q 159 81 157 78 q 141 58 141 49 q 141 42 148 38 q 155 34 189 27 q 204 24 204 24 l 196 -5 q 180 -4 143 -2 q 105 0 81 0 q 49 0 -31 -5 l -22 24 q 27 33 46 44 q 65 56 97 97 q 103 105 123 131 q 143 156 158 176 q 174 197 188 214 l 253 296 q 299 354 320 380 q 341 407 365 437 q 388 467 427 521 q 467 574 535 666 q 539 669 545 678 q 551 687 553 690 l 586 690 q 585 682 581 638 q 577 594 574 562 q 571 532 566 489 q 562 445 560 415 q 557 384 553 334 q 550 285 543 197 q 536 86 536 71 q 536 60 541 54 q 545 48 564 41 q 583 34 620 27 q 635 24 634 24 z m 288 256 l 466 256 l 496 534 l 494 536 z"},"f":{"x_min":0,"x_max":240,"ha":240,"o":"m 77 400 l 82 422 q 123 434 155 446 q 171 509 184 543 q 196 577 214 602 q 231 626 263 654 q 332 712 402 712 q 428 712 448 705 q 467 699 485 689 q 472 658 468 645 q 463 632 456 601 l 430 603 q 428 630 416 651 q 404 671 366 671 q 343 671 325 657 q 306 644 292 618 q 277 592 266 560 q 254 528 236 464 q 236 458 230 441 q 269 440 336 443 l 341 436 q 327 416 318 397 q 277 400 219 401 q 183 265 164 194 q 140 101 119 34 q 99 -32 82 -69 q 65 -105 46 -128 q 26 -151 -4 -173 q -55 -210 -99 -210 q -121 -210 -136 -204 q -150 -198 -170 -185 q -156 -166 -148 -152 q -141 -139 -132 -119 l -122 -119 q -110 -137 -98 -147 q -85 -157 -61 -157 q -23 -157 -1 -120 q 21 -83 47 11 q 57 43 71 102 q 85 160 135 368 q 136 371 138 382 q 141 394 143 401 q 114 400 77 400 z"},"Q":{"x_min":0,"x_max":688,"ha":688,"o":"m 624 -73 l 637 -100 q 577 -135 532 -152 q 488 -169 468 -169 q 449 -169 423 -157 q 396 -146 332 -100 q 318 -90 294 -73 q 270 -55 245 -37 q 221 -20 207 -10 q 155 25 50 41 l 58 72 q 89 69 127 60 q 82 123 82 223 q 82 335 141 445 q 200 554 298 622 q 396 690 504 690 q 566 690 615 664 q 663 638 690 583 q 717 529 717 450 q 717 356 682 271 q 648 187 590 123 q 532 60 460 24 q 388 -12 318 -12 q 305 -12 266 -8 l 264 -10 q 405 -77 433 -88 q 473 -104 507 -104 q 522 -104 534 -102 q 547 -100 569 -93 q 591 -85 624 -73 z m 178 222 q 178 161 200 118 q 222 75 257 53 q 292 31 333 31 q 414 31 480 95 q 547 160 584 258 q 622 356 622 449 q 622 497 612 532 q 601 568 581 593 q 562 618 533 631 q 505 644 471 644 q 396 644 327 581 q 259 518 219 419 q 178 320 178 222 z"},"w":{"x_min":0,"x_max":667,"ha":667,"o":"m 63 324 l 42 345 q 49 352 67 371 q 85 390 107 410 q 129 429 148 442 q 167 454 179 454 q 204 454 211 410 q 218 366 218 296 q 218 254 216 214 q 215 174 214 161 l 212 128 l 214 126 q 232 154 240 167 q 248 179 263 202 q 278 226 316 284 q 330 306 347 332 q 363 358 374 375 q 385 392 398 411 q 411 431 427 454 l 458 454 l 454 273 q 453 231 452 177 q 451 122 450 83 l 452 81 q 542 188 582 248 q 622 308 622 347 q 622 367 611 377 q 601 387 586 386 l 581 395 q 599 411 611 423 q 623 435 638 454 q 657 450 668 437 q 679 424 684 408 q 689 392 689 379 q 689 349 676 320 q 663 291 640 258 q 621 230 582 182 q 542 134 507 94 q 473 54 443 22 q 413 -11 409 -14 l 380 -14 l 387 322 l 385 324 q 353 274 303 197 l 179 9 q 168 -4 164 -14 l 135 -14 q 149 121 149 254 q 149 301 145 338 q 141 375 128 375 q 116 375 74 335 q 66 326 63 324 z"},"-":{"x_min":0,"x_max":271,"ha":271,"o":"m 41 180 l 36 187 q 56 223 69 256 q 96 253 167 253 q 204 253 220 254 q 236 255 265 257 l 271 248 q 252 216 242 182 l 150 184 q 109 184 41 180 z"},"E":{"x_min":0,"x_max":625,"ha":625,"o":"m 164 647 l 172 676 q 230 670 304 670 q 366 670 428 670 q 489 670 555 671 q 622 672 680 676 q 654 590 638 508 l 603 510 q 604 520 605 570 q 606 601 602 612 q 597 624 584 626 q 571 629 535 629 l 358 629 q 349 599 339 568 q 329 536 316 491 q 298 437 291 406 q 289 400 286 391 q 283 382 280 373 l 365 373 q 425 373 443 377 q 456 380 467 397 q 478 414 497 451 l 504 465 l 533 465 q 529 450 528 446 q 513 395 508 378 q 503 361 498 342 q 492 322 487 301 q 481 279 474 252 q 469 236 466 224 l 434 224 q 434 226 438 262 q 441 298 441 303 q 441 319 430 325 q 420 330 402 330 q 391 330 335 331 q 279 332 269 332 q 264 313 249 257 q 233 201 231 194 q 210 121 191 44 l 402 44 q 444 44 463 50 q 481 55 497 75 q 513 95 542 149 q 545 156 551 166 q 557 175 558 178 l 594 178 q 565 103 538 18 l 531 -5 q 500 -4 374 -2 q 246 0 214 0 q 169 0 148 0 q 126 0 89 -1 q 51 -2 30 -3 q 8 -4 -12 -5 l -3 24 l 15 28 q 49 35 67 40 q 85 45 92 51 q 98 57 104 72 q 116 104 135 165 q 153 227 177 312 q 197 385 214 446 q 230 507 243 554 q 256 602 256 607 q 256 621 246 626 q 233 633 183 643 q 169 645 164 647 z"},"s":{"x_min":0,"x_max":323,"ha":323,"o":"m 316 337 l 293 337 q 290 366 274 392 q 258 418 215 418 q 185 418 166 401 q 146 384 146 359 q 146 348 151 336 q 157 325 172 308 q 187 291 214 265 q 253 227 274 194 q 294 161 294 128 q 294 92 270 59 q 247 26 206 6 q 165 -14 116 -14 q 70 -14 43 -2 q 16 10 -9 29 q 17 76 33 115 l 46 112 q 53 80 61 70 q 74 53 98 43 q 122 32 146 32 q 181 32 202 51 q 223 69 223 99 q 223 119 208 145 q 192 170 148 216 q 107 259 94 282 q 80 304 80 330 q 80 362 101 391 q 122 420 159 437 q 196 454 241 454 q 298 454 343 426 q 339 415 331 387 q 323 358 316 337 z"},">":{"x_min":0,"x_max":667,"ha":667,"o":"m 657 295 l 127 72 l 127 141 l 571 324 l 127 506 l 127 576 l 658 352 z"},"l":{"x_min":0,"x_max":250,"ha":250,"o":"m 130 622 l 138 652 l 158 657 q 224 677 245 685 q 267 693 304 712 l 317 697 q 310 683 298 650 q 278 596 258 532 q 253 518 243 486 q 233 454 225 428 q 217 402 203 358 l 170 248 q 165 233 158 209 q 148 177 136 134 q 124 91 124 81 q 124 68 135 68 q 147 68 198 107 q 207 112 212 117 l 231 96 q 188 50 133 18 q 79 -14 60 -14 q 49 -14 41 -8 q 32 -1 32 11 q 32 37 79 180 q 86 202 107 270 q 128 337 139 377 q 151 417 165 466 q 180 515 203 595 q 206 610 206 611 q 206 627 186 627 q 170 627 130 622 z"},"8":{"x_min":0,"x_max":468,"ha":468,"o":"m 345 380 q 396 319 418 280 q 440 241 440 198 q 440 155 420 115 q 400 75 367 46 q 334 17 292 0 q 249 -17 204 -17 q 164 -17 130 0 q 97 18 77 50 q 57 83 57 127 q 57 180 85 224 q 113 268 152 299 q 192 330 252 366 q 235 388 221 409 q 207 431 195 462 q 182 492 182 524 q 182 568 208 606 q 235 644 279 666 q 323 687 371 687 q 414 687 444 672 q 474 656 490 629 q 506 602 506 567 q 506 503 463 462 q 421 422 345 380 z m 319 411 q 368 440 402 475 q 436 509 436 565 q 436 613 410 631 q 384 649 354 649 q 313 649 286 621 q 259 593 259 549 q 259 517 274 486 q 289 456 319 411 z m 275 336 q 214 293 173 247 q 132 201 132 136 q 132 98 158 63 q 185 29 232 29 q 271 29 300 48 q 329 68 344 99 q 359 131 359 165 q 359 206 340 241 q 321 277 275 336 z"},"\\":{"x_min":0,"x_max":531,"ha":531,"o":"m 104 712 l 171 712 l 521 -2 l 454 -2 z"},"e":{"x_min":0,"x_max":365,"ha":365,"o":"m 304 114 l 324 86 q 201 -14 128 -14 q 90 -14 69 8 q 48 29 41 59 q 33 89 33 117 q 33 182 59 243 q 85 304 129 352 q 174 400 227 427 q 279 454 331 454 q 355 454 374 442 q 393 429 393 399 q 393 352 357 309 q 322 267 275 246 q 237 228 198 218 q 158 208 120 202 q 120 200 117 177 q 114 154 114 137 q 114 104 125 74 q 136 45 168 45 q 215 45 304 114 z m 130 237 q 246 257 284 302 q 322 348 322 384 q 322 417 291 417 q 257 417 210 375 q 162 333 130 237 z"},"b":{"x_min":0,"x_max":448,"ha":448,"o":"m 126 624 l 134 654 q 237 682 293 712 l 309 699 q 304 688 301 681 q 298 674 294 665 q 291 656 282 630 q 273 604 266 581 q 212 421 172 293 l 174 291 q 209 337 241 372 q 273 408 306 431 q 339 454 368 454 q 404 454 427 421 q 449 388 449 326 q 449 262 425 201 q 400 140 358 91 q 315 42 262 14 q 208 -14 152 -14 q 118 -14 83 1 q 48 17 48 66 q 48 87 54 115 q 57 127 89 239 q 121 351 127 370 q 128 373 137 405 q 147 436 156 468 q 166 499 167 502 q 168 507 176 535 q 187 567 189 579 q 196 600 196 614 q 196 629 175 629 q 169 629 142 626 q 141 626 134 625 q 127 624 126 624 z m 368 293 q 368 389 328 389 q 308 389 256 340 q 205 290 165 221 q 124 152 124 91 q 124 59 141 43 q 158 27 183 27 q 224 27 258 52 q 292 78 317 119 q 342 160 355 206 q 368 251 368 293 z"},"%":{"x_min":0,"x_max":781,"ha":781,"o":"m 187 419 q 187 352 226 352 q 251 352 275 389 q 298 426 312 481 q 326 536 326 588 q 326 617 316 633 q 307 650 288 650 q 261 650 237 611 q 214 571 200 516 q 187 460 187 419 z m 663 687 l 719 687 l 204 -38 l 150 -38 z m 120 433 q 120 464 132 508 q 145 552 167 593 q 189 634 223 660 q 257 687 298 687 q 330 687 352 670 q 374 653 383 626 q 393 600 393 570 q 393 513 369 454 q 344 394 303 355 q 263 317 217 317 q 164 317 142 355 q 120 393 120 433 z m 476 77 q 476 108 488 153 q 500 197 523 238 q 546 279 579 306 q 613 332 654 332 q 686 332 708 315 q 729 298 739 271 q 749 244 749 214 q 749 159 725 99 q 701 39 660 0 q 619 -38 573 -38 q 520 -38 498 0 q 476 38 476 77 z m 544 63 q 544 -4 582 -4 q 608 -4 631 34 q 654 71 668 126 q 682 182 682 233 q 682 261 672 278 q 662 295 644 295 q 616 295 593 255 q 570 215 557 159 q 544 104 544 63 z"},"m":{"x_min":0,"x_max":760,"ha":760,"o":"m 60 316 l 43 336 q 97 396 145 425 q 192 454 209 454 q 218 454 225 449 q 231 443 231 432 q 231 413 220 380 q 210 347 178 260 q 173 250 166 228 l 168 226 q 210 287 251 331 q 291 374 326 401 q 362 428 390 441 q 417 454 434 454 q 475 454 475 419 q 475 396 464 358 q 454 320 440 283 q 427 246 419 228 l 421 226 q 477 305 529 356 q 582 408 624 431 q 667 454 696 454 q 739 454 739 412 q 739 382 690 237 q 674 190 659 142 q 644 95 644 83 q 644 70 655 70 q 669 70 690 85 q 712 101 730 117 l 750 96 q 685 34 642 10 q 599 -14 578 -14 q 550 -14 550 11 q 550 28 561 66 q 573 104 603 193 q 633 282 644 315 q 655 349 655 363 q 655 384 638 384 q 621 384 590 362 q 559 340 526 306 q 493 273 472 245 q 445 209 429 180 q 413 150 401 117 q 390 85 362 0 q 308 -1 283 -7 q 329 125 379 292 q 391 331 391 358 q 391 382 375 382 q 362 382 331 360 q 299 337 260 296 q 217 251 190 207 q 164 163 148 119 q 132 76 110 0 q 62 0 32 -7 q 75 126 83 150 l 121 273 q 139 330 139 350 q 139 366 129 366 q 118 366 93 346 q 68 325 60 316 z"},"#":{"x_min":0,"x_max":667,"ha":667,"o":"m 102 476 l 261 476 l 303 673 l 363 673 l 321 476 l 526 476 l 568 673 l 628 673 l 586 476 l 682 476 l 682 416 l 574 416 l 537 235 l 682 235 l 682 175 l 525 175 l 483 -20 l 423 -20 l 465 175 l 259 175 l 217 -20 l 157 -20 l 199 175 l 102 175 l 102 235 l 211 235 l 249 416 l 102 416 z m 514 416 l 309 416 l 271 235 l 477 235 z"},",":{"x_min":0,"x_max":260,"ha":260,"o":"m 37 19 l 30 40 q 64 67 102 109 q 133 94 141 70 q 150 46 150 29 q 150 -1 134 -36 q 119 -70 87 -104 q 55 -137 10 -166 l -8 -140 q 23 -116 50 -83 q 77 -50 77 -13 q 77 24 37 19 z"},"n":{"x_min":0,"x_max":510,"ha":510,"o":"m 481 117 l 500 97 q 453 53 408 19 q 363 -14 328 -14 q 314 -14 308 -6 q 301 3 301 12 q 301 29 312 67 q 324 104 352 185 q 379 266 393 307 q 406 349 406 367 q 406 376 402 381 q 397 386 391 386 q 379 386 357 373 q 334 359 309 337 q 284 314 251 279 q 215 237 195 205 q 175 173 162 138 q 149 103 128 37 q 119 7 116 0 q 66 -1 36 -7 q 45 19 69 95 q 72 104 79 128 q 87 152 89 159 q 128 279 136 311 q 144 337 144 353 q 144 365 135 365 q 123 365 99 345 q 76 326 66 315 l 49 337 q 78 369 102 389 q 126 409 151 425 q 175 440 192 447 q 209 454 215 454 q 223 454 229 448 q 236 442 236 432 q 236 403 214 343 q 192 282 168 224 l 170 222 q 208 276 250 325 q 293 374 347 414 q 401 454 449 454 q 491 454 491 413 q 491 395 482 368 q 480 361 460 299 q 441 237 434 213 q 427 190 415 154 q 403 118 400 109 q 396 97 396 84 q 396 69 406 69 q 424 69 481 117 z"},"h":{"x_min":0,"x_max":500,"ha":500,"o":"m 307 712 l 321 699 q 309 673 289 616 q 268 560 257 525 q 210 375 207 366 q 179 277 168 245 l 170 243 q 229 321 300 388 q 372 454 439 454 q 477 454 477 415 q 477 397 472 378 q 467 358 440 274 q 394 128 390 117 q 382 95 382 85 q 382 68 394 68 q 400 68 411 75 q 422 82 434 91 q 447 100 459 110 q 462 112 464 114 q 467 117 468 117 l 486 97 q 459 68 426 42 q 392 15 362 0 q 332 -14 316 -14 q 288 -14 288 12 q 288 26 296 55 q 304 83 315 116 q 327 149 332 165 q 367 262 379 304 q 392 346 392 365 q 392 384 376 384 q 349 384 307 347 q 264 310 239 280 q 204 240 183 206 q 163 173 151 142 q 139 112 112 32 q 108 17 101 0 q 45 -1 23 -7 q 55 83 87 193 q 123 318 135 356 q 146 395 164 456 q 167 463 177 502 q 188 541 198 576 q 208 611 208 616 q 208 630 192 630 q 183 630 135 624 l 143 654 q 237 677 307 712 z"},"z":{"x_min":0,"x_max":375,"ha":375,"o":"m 95 313 l 70 325 q 89 366 104 390 q 118 414 136 430 q 154 446 175 446 q 191 446 241 431 q 284 417 312 417 q 351 417 402 446 l 418 426 q 349 340 193 192 q 111 113 98 101 q 85 88 53 55 l 55 53 q 81 70 101 79 q 120 89 143 89 q 156 89 175 85 q 193 82 206 78 q 269 63 282 63 q 300 63 315 80 q 331 98 351 131 l 376 118 q 343 49 320 21 q 297 -7 257 -7 q 235 -7 165 9 q 154 12 131 17 q 108 21 87 21 q 45 21 -6 -7 l -26 10 q -7 39 11 63 q 30 87 68 127 q 106 167 157 215 q 164 222 182 240 q 201 257 218 273 q 235 289 242 296 l 311 364 l 328 377 l 326 379 q 282 356 259 356 q 232 356 210 365 q 204 367 192 370 q 181 374 175 375 q 167 378 158 378 q 144 378 132 366 q 120 354 101 322 z"},"B":{"x_min":0,"x_max":604,"ha":604,"o":"m 166 647 l 174 676 q 232 670 307 670 q 327 670 350 671 q 373 671 411 672 q 449 674 487 672 q 524 671 558 660 q 593 649 615 623 q 637 596 637 550 q 637 511 619 476 q 600 442 568 417 q 536 393 509 382 q 482 372 436 360 l 436 358 q 494 354 537 329 q 579 304 579 231 q 579 184 560 145 q 541 105 511 78 q 482 50 448 32 q 418 16 378 6 q 337 -5 266 -5 q 236 -5 188 -3 q 162 0 108 0 q 75 0 -10 -5 l -1 24 q 0 24 17 27 q 56 35 70 40 q 84 44 92 52 q 99 59 105 74 q 110 86 120 116 q 129 146 143 194 q 158 241 185 334 q 190 353 196 372 q 202 392 209 417 q 217 443 221 458 q 223 464 231 495 q 239 527 245 549 q 251 572 253 578 q 260 595 260 611 q 260 624 242 630 q 225 637 166 647 z m 356 626 l 284 380 q 328 380 358 382 q 388 384 424 393 q 462 403 490 425 q 519 447 534 477 q 550 507 550 541 q 550 633 435 633 q 405 633 356 626 z m 191 44 q 249 37 281 37 q 331 37 361 46 q 392 55 417 76 q 449 102 468 144 q 487 185 487 226 q 487 269 471 293 q 455 316 426 327 q 397 337 364 338 q 332 340 274 339 q 249 252 239 218 q 229 183 222 155 q 214 128 205 96 q 197 65 191 44 z"},"K":{"x_min":0,"x_max":708,"ha":708,"o":"m 815 676 l 810 647 q 771 642 752 635 q 732 629 700 610 q 668 591 598 540 q 541 499 500 469 q 460 440 418 411 q 406 402 393 393 q 379 384 361 370 q 374 349 415 286 q 424 272 455 225 q 485 178 499 157 q 512 137 525 118 q 551 82 561 71 q 571 60 585 52 q 598 45 663 29 q 683 24 687 24 l 678 -5 q 656 -3 623 -2 q 577 0 535 0 q 467 0 379 -5 l 386 24 q 392 24 404 28 q 437 36 446 40 q 456 44 456 54 q 456 60 448 77 q 439 93 434 101 q 425 117 401 157 q 376 197 350 238 q 324 279 306 307 q 289 336 276 356 q 257 292 226 179 q 196 65 196 57 q 196 51 203 46 q 209 42 216 41 q 223 39 291 24 l 281 -5 q 258 -3 216 -2 q 164 0 127 0 q 57 0 -11 -5 l -3 24 q -2 24 2 25 q 7 25 15 27 q 63 37 76 43 q 90 50 98 63 q 104 73 119 119 q 134 165 155 239 q 177 313 180 326 q 245 554 255 596 q 257 605 257 612 q 257 621 252 624 q 247 629 226 635 q 205 640 189 642 q 180 644 175 645 q 170 646 166 647 l 173 676 q 264 670 307 670 q 339 670 465 676 l 457 647 q 453 646 448 645 q 444 644 436 642 q 396 634 380 628 q 364 622 357 610 q 350 599 342 571 q 339 561 335 549 q 331 536 329 529 q 303 449 280 370 q 331 403 427 475 l 518 541 q 544 559 577 587 q 611 615 611 625 q 611 637 563 647 l 571 676 q 637 670 678 670 q 725 670 815 676 z"},"R":{"x_min":0,"x_max":677,"ha":677,"o":"m 162 647 l 169 676 q 188 675 201 674 q 213 673 233 672 q 283 670 318 670 q 345 670 405 672 q 442 676 485 676 q 549 676 595 647 q 640 618 640 549 q 640 523 631 493 q 623 462 598 430 q 573 398 530 373 q 500 356 475 348 q 450 340 421 335 q 422 332 426 323 q 430 314 431 312 q 432 309 433 306 q 437 298 458 255 q 479 211 487 192 q 537 86 548 70 q 557 58 568 51 q 579 44 596 39 q 613 34 647 26 q 651 25 656 24 q 661 23 664 23 q 666 22 667 22 l 660 -5 q 645 -3 622 -2 q 590 0 557 0 q 505 0 470 -3 q 447 68 405 167 q 398 182 388 207 q 378 232 369 255 q 359 277 349 302 q 349 304 344 316 q 339 328 338 329 q 309 329 266 335 q 261 316 256 299 q 251 282 242 250 q 233 218 224 183 q 201 94 194 71 q 191 65 191 58 q 191 46 213 39 q 234 32 269 26 l 286 24 l 278 -5 q 257 -3 227 -2 q 183 0 141 0 q 67 0 -16 -5 l -9 24 q -2 24 12 28 q 55 36 71 42 q 86 49 93 61 q 101 74 113 112 q 136 184 170 300 q 204 416 229 509 q 254 603 254 613 q 254 624 245 627 q 242 628 162 647 z m 352 623 l 313 496 q 285 405 276 371 q 321 368 329 368 q 387 368 437 385 q 486 403 518 440 q 549 477 549 535 q 549 631 438 631 q 404 631 352 623 z"},"T":{"x_min":0,"x_max":656,"ha":656,"o":"m 725 489 l 691 489 q 691 490 692 507 q 692 524 696 590 q 698 614 683 619 q 667 625 623 625 l 513 625 q 513 622 508 606 q 503 591 502 587 q 496 565 484 524 q 472 483 464 456 q 456 428 445 389 q 434 350 427 324 q 370 118 358 73 q 356 67 356 56 q 356 47 362 44 q 372 38 433 29 q 455 24 459 24 l 451 -5 q 427 -3 385 -2 q 335 0 304 0 q 255 0 139 -5 l 147 24 q 148 24 151 25 q 154 25 157 26 q 160 26 164 27 q 168 28 170 28 q 233 38 245 47 q 267 65 299 183 q 302 198 326 274 q 331 290 335 304 q 340 319 342 328 l 386 482 q 409 559 427 625 l 317 625 q 282 625 265 621 q 248 618 237 604 q 226 591 212 558 l 183 489 l 148 489 q 173 582 190 676 q 208 676 224 675 q 239 675 265 674 q 291 674 330 673 q 419 670 467 670 q 498 670 611 672 l 772 676 q 753 617 746 584 q 740 557 734 529 q 728 500 725 489 z"},"P":{"x_min":0,"x_max":573,"ha":573,"o":"m 170 647 l 178 676 q 188 675 199 675 q 210 674 230 672 q 272 670 303 670 q 333 670 413 674 l 479 676 q 647 676 647 546 q 647 509 631 470 q 615 430 581 395 q 546 360 491 338 q 437 316 362 316 q 320 316 269 326 l 243 230 q 239 214 235 199 q 230 184 227 171 q 223 159 218 140 l 204 87 q 203 84 202 80 q 201 75 200 74 q 198 65 198 59 q 198 49 207 44 q 213 41 242 36 q 271 30 294 28 q 310 24 319 24 l 310 -5 q 282 -3 248 -2 q 196 0 140 0 q 72 0 -10 -5 l -2 24 q -1 24 3 25 q 6 25 11 26 q 15 27 20 28 q 70 38 83 44 q 96 50 105 70 q 115 92 133 152 q 151 212 190 348 q 190 350 193 360 q 196 371 202 387 q 223 462 226 471 q 235 503 242 527 q 249 552 256 579 q 262 605 262 613 q 262 624 250 629 q 239 634 186 643 q 174 645 170 647 z m 282 364 q 326 355 352 355 q 407 355 454 376 q 500 397 528 438 q 556 479 556 533 q 556 595 518 613 q 480 631 431 631 q 395 631 361 622 q 360 620 352 595 q 341 562 290 393 q 288 385 286 379 q 285 374 282 364 z"},"|":{"x_min":0,"x_max":531,"ha":531,"o":"m 280 712 l 345 712 l 345 -119 l 280 -119 z"},"t":{"x_min":0,"x_max":281,"ha":281,"o":"m 236 559 l 263 557 q 238 488 221 440 q 282 440 334 442 l 338 433 q 325 415 316 396 q 274 400 209 399 q 202 375 178 296 q 155 216 139 156 q 123 95 123 82 q 123 72 129 69 q 135 66 139 66 q 160 66 235 122 l 253 103 q 210 62 160 24 q 109 -14 69 -14 q 33 -14 33 21 q 33 32 39 55 q 44 78 51 99 q 57 120 63 139 q 66 149 71 164 q 75 179 82 202 q 89 225 106 283 q 124 342 134 376 q 135 376 141 400 q 119 400 74 397 l 81 427 q 121 440 154 465 q 187 489 236 559 z"},"M":{"x_min":0,"x_max":885,"ha":885,"o":"m 1009 676 l 1002 647 q 1000 646 996 646 q 992 645 986 643 q 944 635 928 630 q 913 625 904 613 q 895 601 887 573 q 882 555 869 512 q 855 469 848 447 q 827 380 799 281 q 772 182 757 122 q 741 62 741 58 q 741 42 764 39 q 771 38 790 33 q 810 29 821 26 q 830 24 834 24 l 825 -5 q 802 -3 767 -2 q 717 0 675 0 q 597 0 532 -5 l 541 24 q 544 24 553 26 q 609 38 620 42 q 631 45 639 55 q 658 80 687 183 l 723 305 q 737 351 747 385 q 757 419 759 424 q 761 429 769 457 q 785 511 804 572 l 802 574 q 781 545 733 478 q 685 410 606 300 q 527 189 483 128 q 419 40 393 0 l 361 0 q 359 21 358 30 q 357 40 355 67 q 342 200 333 281 q 333 287 327 337 q 322 386 322 392 q 308 515 304 567 l 302 567 q 294 540 273 465 q 249 383 194 180 q 188 155 176 110 q 164 65 164 61 q 164 52 168 48 q 172 43 188 38 q 203 34 252 24 l 244 -5 q 223 -3 186 -2 q 142 0 118 0 q 104 0 -9 -5 l -1 24 q 4 24 10 26 q 60 35 75 42 q 91 48 98 65 q 114 99 156 239 q 199 378 227 479 q 232 500 247 551 q 262 601 262 601 q 265 608 265 614 q 265 624 249 628 l 150 647 l 158 676 q 192 673 210 671 q 229 670 263 670 q 302 670 371 676 q 374 661 374 647 q 396 402 410 289 l 429 134 l 563 319 q 593 362 662 456 q 726 543 753 582 q 781 621 815 676 q 855 670 900 670 q 941 670 1009 676 z"},"g":{"x_min":0,"x_max":427,"ha":427,"o":"m 460 440 l 465 433 q 452 415 443 394 q 416 399 382 402 q 399 365 399 337 q 399 314 390 280 q 381 247 358 213 q 335 180 292 155 q 250 130 185 124 q 152 94 152 77 q 152 65 171 55 q 190 44 242 27 q 377 -17 377 -76 q 377 -106 348 -137 q 318 -169 263 -189 q 208 -210 135 -210 q 89 -210 50 -201 q 11 -191 -15 -176 q -41 -161 -54 -144 q -67 -127 -67 -113 q -67 -89 -37 -70 q -3 -47 28 -31 q 59 -15 93 1 q 80 9 73 15 q 66 21 66 30 q 66 40 72 50 q 79 61 91 73 q 104 85 134 112 q 137 115 145 121 q 152 128 154 129 q 132 135 115 145 q 97 154 82 177 q 67 201 67 242 q 67 291 95 341 q 123 390 172 422 q 222 454 284 454 q 307 454 321 450 q 334 446 353 437 q 371 437 396 437 q 421 437 460 440 z m 142 250 q 142 220 155 189 q 167 158 210 158 q 239 158 266 182 q 292 207 308 245 q 324 283 324 323 q 324 359 312 391 q 299 424 262 424 q 214 424 178 366 q 142 309 142 250 z m 123 -10 l 96 -25 q 80 -33 60 -48 q 41 -62 28 -77 q 15 -92 15 -105 q 15 -137 60 -154 q 104 -171 152 -171 q 187 -171 220 -161 q 254 -151 275 -135 q 296 -119 296 -101 q 296 -86 283 -76 q 270 -67 238 -53 q 200 -35 123 -10 z"},"j":{"x_min":0,"x_max":240,"ha":240,"o":"m 66 311 l 48 332 q 83 367 137 411 q 191 454 219 454 q 229 454 236 448 q 242 442 242 432 q 242 412 228 369 q 208 309 190 249 q 172 188 136 61 q 115 -11 98 -52 q 81 -94 60 -122 q 40 -149 7 -173 q -43 -210 -84 -210 q -119 -210 -153 -186 q -130 -156 -113 -120 l -104 -120 q -85 -158 -46 -158 q -19 -158 0 -128 q 20 -98 37 -33 q 49 8 79 115 q 88 146 99 188 l 120 262 q 123 273 131 301 q 139 329 142 341 q 145 354 145 355 q 145 364 137 364 q 127 364 107 347 q 86 331 66 311 z m 258 663 q 274 663 287 650 q 299 638 299 619 q 299 594 282 572 q 265 550 243 550 q 227 550 215 565 q 203 580 203 598 q 203 622 219 643 q 235 663 258 663 z"},"i":{"x_min":0,"x_max":271,"ha":271,"o":"m 229 117 l 248 96 q 204 54 154 20 q 105 -14 78 -14 q 67 -14 59 -6 q 51 2 51 15 q 51 34 65 78 l 101 179 q 104 190 131 272 q 158 354 158 358 q 158 370 148 370 q 141 370 124 358 q 106 345 94 331 l 81 318 l 63 338 q 115 392 160 423 q 205 454 228 454 q 248 454 248 435 q 248 424 237 386 q 226 349 208 295 q 190 241 180 212 q 167 179 153 133 q 138 87 138 77 q 138 65 148 65 q 167 65 215 107 q 217 108 222 112 q 227 116 229 117 z m 269 663 q 286 663 298 650 q 310 638 310 619 q 310 594 293 572 q 276 550 254 550 q 237 550 226 565 q 214 580 214 598 q 214 614 221 629 q 228 643 241 653 q 253 663 269 663 z"},"y":{"x_min":0,"x_max":458,"ha":458,"o":"m 63 324 l 43 343 q 79 387 117 421 q 156 454 177 454 q 193 454 203 435 q 213 417 218 395 q 227 360 233 315 q 239 270 242 229 q 245 188 246 144 q 248 101 248 68 l 250 68 q 304 139 350 213 q 397 288 397 340 q 397 384 361 385 l 357 394 q 386 421 412 454 q 446 443 455 420 q 464 396 464 375 q 464 332 439 282 q 414 233 331 118 q 268 30 209 -41 q 151 -111 115 -144 q 45 -210 -2 -210 q -37 -210 -69 -185 q -49 -154 -34 -119 l -26 -119 q -15 -136 -5 -143 q 4 -150 24 -150 q 48 -150 81 -126 q 113 -102 181 -14 q 182 46 178 117 q 174 188 167 246 q 160 304 149 338 q 139 373 126 373 q 114 373 77 338 z"},"@":{"x_min":0,"x_max":917,"ha":917,"o":"m 688 468 l 630 273 q 630 272 619 233 q 603 171 601 168 q 585 114 585 88 q 585 76 594 63 q 602 50 622 50 q 656 50 692 74 q 729 99 760 143 q 791 186 809 245 q 828 304 828 368 q 828 453 789 522 q 750 591 678 630 q 606 669 512 669 q 418 669 340 630 q 262 591 207 525 q 152 458 122 374 q 93 290 93 204 q 93 118 121 46 q 150 -26 202 -78 q 254 -130 324 -158 q 394 -186 475 -186 q 551 -186 625 -160 q 699 -133 763 -73 q 828 -12 868 84 l 896 84 q 873 10 828 -46 q 784 -103 727 -140 q 670 -177 604 -197 q 539 -216 473 -216 q 354 -216 257 -160 q 159 -105 103 -6 q 47 93 47 217 q 47 351 110 461 q 172 571 279 633 q 386 695 509 695 q 595 695 661 667 q 727 640 771 592 q 815 545 836 485 q 858 425 858 360 q 858 303 840 241 q 823 180 789 129 q 754 79 703 47 q 652 15 589 15 q 554 15 534 31 q 514 47 514 83 q 514 104 522 152 l 520 154 q 476 97 428 56 q 380 15 330 15 q 302 15 282 33 q 261 51 252 77 q 242 103 242 129 q 242 185 267 244 q 292 304 334 356 q 376 409 422 440 q 469 471 510 471 q 579 471 594 403 l 596 403 l 611 457 z m 516 448 q 472 448 426 392 q 380 336 349 261 q 319 187 319 144 q 319 116 335 95 q 351 74 375 74 q 417 74 456 113 q 496 152 524 195 q 544 227 561 284 q 577 342 577 376 q 577 397 570 413 q 562 429 548 439 q 534 448 516 448 z"},".":{"x_min":0,"x_max":260,"ha":260,"o":"m 45 30 q 45 67 65 84 q 85 101 105 101 q 122 101 135 88 q 147 75 147 56 q 147 41 140 24 q 132 7 119 -3 q 105 -14 89 -14 q 65 -14 55 1 q 45 17 45 30 z"},"p":{"x_min":0,"x_max":469,"ha":469,"o":"m 62 313 l 45 335 q 80 371 115 398 q 149 425 176 440 q 203 454 214 454 q 235 454 235 433 q 235 400 186 287 l 188 285 q 226 338 265 377 q 303 416 334 435 q 366 454 384 454 q 408 454 427 438 q 446 421 457 393 q 467 365 467 328 q 467 265 444 204 q 421 143 381 93 q 341 43 290 15 q 239 -14 184 -14 q 151 -14 114 6 q 110 -13 106 -21 q 103 -32 94 -64 q 85 -95 80 -117 q 74 -138 74 -148 q 74 -160 87 -165 q 100 -170 136 -177 q 141 -178 144 -179 q 147 -180 149 -180 l 141 -209 q 73 -204 19 -204 q -31 -204 -94 -209 l -86 -180 q -85 -180 -80 -179 q -76 -178 -73 -177 q -51 -171 -39 -169 q -28 -166 -23 -165 q -19 -163 -13 -158 q 3 -140 30 -49 l 101 188 q 147 339 147 353 q 147 365 139 365 q 124 365 79 327 q 73 320 62 313 z m 129 60 q 141 51 151 44 q 161 38 175 33 q 189 29 208 29 q 245 29 279 55 q 312 81 336 122 q 360 164 374 212 q 387 261 387 306 q 387 334 380 362 q 373 389 350 389 q 332 389 300 363 q 268 337 243 309 q 222 284 202 251 q 183 218 165 172 q 147 126 129 60 z"},"X":{"x_min":0,"x_max":708,"ha":708,"o":"m 197 647 l 207 676 q 248 673 274 671 q 301 670 348 670 q 395 670 423 671 q 451 673 498 676 l 490 647 q 487 646 483 645 q 479 645 475 643 q 423 631 405 622 q 386 613 386 601 q 386 592 402 538 q 417 484 433 430 q 439 418 439 411 l 479 451 q 542 514 542 514 q 548 520 579 552 q 610 583 616 589 q 640 612 640 624 q 640 632 629 636 q 612 641 583 647 l 589 676 q 642 670 698 670 q 761 670 815 676 l 806 646 q 763 636 745 628 q 728 621 703 600 q 679 579 636 536 q 607 505 560 462 q 499 403 455 357 q 461 335 467 318 q 472 301 486 256 q 541 80 552 60 q 557 51 566 47 q 575 43 597 38 q 641 27 658 24 l 649 -5 q 624 -3 591 -2 q 545 0 507 0 q 447 0 357 -5 l 365 24 q 367 24 375 26 q 382 28 383 28 q 396 32 411 36 q 426 41 437 46 q 448 50 450 53 q 453 56 453 63 q 453 75 431 154 q 409 232 398 267 l 390 293 q 379 282 369 272 q 359 262 349 252 q 339 242 289 193 q 256 160 219 123 q 182 86 173 76 q 159 60 159 50 q 159 43 166 40 q 174 36 208 28 q 211 27 215 26 q 219 25 222 25 q 225 24 225 24 l 217 -5 q 198 -3 172 -2 q 138 0 111 0 q 56 0 -10 -5 l -3 24 q 28 28 48 40 q 68 51 99 79 q 122 101 151 128 q 180 156 232 207 q 284 257 321 294 q 358 330 375 347 q 370 367 357 410 q 343 454 330 491 q 327 501 296 600 q 291 617 279 624 q 267 631 217 642 q 210 643 197 647 z"},"*":{"x_min":0,"x_max":458,"ha":458,"o":"m 265 712 l 351 712 l 323 543 l 475 621 l 502 538 l 332 515 l 454 395 l 384 343 l 307 499 l 230 343 l 159 395 l 282 515 l 114 543 l 140 625 l 293 543 z"},"Y":{"x_min":0,"x_max":635,"ha":635,"o":"m 148 647 l 157 676 q 161 676 193 674 q 224 671 244 671 q 264 670 285 670 q 353 670 447 676 l 440 647 q 430 644 421 642 q 354 624 347 618 q 338 612 338 601 q 338 583 366 494 l 408 359 q 416 368 421 375 q 427 382 450 411 q 473 440 515 495 q 547 535 597 603 q 599 605 602 610 q 604 616 604 619 q 604 628 596 632 q 587 635 554 643 q 544 645 541 647 l 548 676 q 620 670 659 670 q 720 670 776 676 l 767 646 q 728 640 711 632 q 694 625 670 601 q 646 576 597 515 q 580 495 517 417 q 451 337 424 301 q 422 296 419 286 q 417 276 413 263 q 409 250 403 229 q 397 208 385 166 q 383 160 375 129 q 366 97 362 80 q 358 63 358 60 q 358 50 364 46 q 370 42 383 39 q 408 36 440 28 q 452 24 462 24 l 453 -5 q 433 -3 401 -2 q 357 0 319 0 q 265 0 140 -5 l 148 24 q 148 24 153 25 q 158 25 162 26 q 167 27 167 27 q 229 39 242 45 q 255 51 264 72 q 275 101 336 301 q 340 311 340 315 q 340 319 339 323 q 337 328 336 331 q 334 334 331 342 q 316 382 288 474 q 277 508 259 561 q 241 613 233 621 q 226 628 214 632 q 202 635 163 643 q 151 646 148 647 z"},"c":{"x_min":0,"x_max":354,"ha":354,"o":"m 305 128 l 330 104 q 304 78 275 53 q 246 29 207 7 q 167 -14 130 -14 q 79 -14 54 25 q 29 64 29 112 q 29 174 53 237 q 78 300 120 349 q 161 397 212 426 q 263 454 315 454 q 345 454 365 447 q 384 440 407 428 q 394 394 390 382 q 386 370 377 335 l 348 335 q 335 410 283 410 q 248 410 206 373 q 165 335 137 273 q 109 211 109 140 q 109 110 120 78 q 130 46 165 46 q 215 46 305 128 z"},"!":{"x_min":0,"x_max":260,"ha":260,"o":"m 155 187 l 116 187 q 133 255 169 416 q 205 576 220 656 q 258 665 272 669 q 286 674 323 690 l 334 680 q 315 629 299 586 q 283 543 258 477 q 233 411 208 339 q 182 267 163 213 z m 45 30 q 45 67 65 84 q 85 101 105 101 q 122 101 135 88 q 147 75 147 56 q 147 31 130 9 q 114 -14 90 -14 q 64 -14 55 2 q 45 18 45 30 z"},"/":{"x_min":0,"x_max":531,"ha":531,"o":"m 454 712 l 521 712 l 171 -2 l 104 -2 z"},"[":{"x_min":0,"x_max":302,"ha":302,"o":"m 429 703 l 418 664 l 317 664 q 311 646 303 620 q 295 594 284 557 q 273 520 260 473 q 250 438 223 342 q 196 246 173 165 q 149 83 128 11 q 107 -62 84 -142 q 83 -146 81 -151 q 80 -155 78 -161 l 180 -161 l 169 -200 q 129 -198 81 -198 q 36 -198 -6 -200 q 39 -63 129 256 q 129 257 144 307 q 158 356 172 407 q 186 458 192 480 q 212 547 246 679 q 248 683 253 703 q 299 701 337 701 q 375 701 429 703 z"},"6":{"x_min":0,"x_max":468,"ha":468,"o":"m 504 687 l 517 651 q 429 612 365 561 q 301 510 263 463 q 225 415 187 354 l 189 352 q 229 385 256 405 q 282 424 303 433 q 324 441 347 441 q 402 441 434 397 q 466 353 466 282 q 466 228 446 174 q 425 120 389 77 q 353 34 303 8 q 254 -17 200 -17 q 136 -17 99 28 q 62 72 62 155 q 62 238 98 323 q 133 408 195 481 q 257 554 337 608 q 416 661 504 687 z m 144 153 q 144 116 161 71 q 179 26 233 26 q 278 26 312 63 q 346 100 364 156 q 382 212 382 266 q 382 315 368 340 q 355 366 339 373 q 324 380 310 380 q 280 380 241 356 q 202 333 173 281 q 144 230 144 153 z"},"r":{"x_min":0,"x_max":333,"ha":333,"o":"m 65 318 l 47 340 q 166 454 210 454 q 229 454 229 434 q 229 419 220 386 q 210 353 195 308 q 180 264 171 239 q 161 213 154 196 l 156 194 q 197 267 232 322 q 268 377 292 405 q 316 433 335 444 q 354 454 375 454 q 390 454 411 444 q 396 413 391 403 q 387 392 374 357 l 353 357 q 346 371 335 371 q 318 371 294 346 q 271 322 251 292 q 230 262 207 223 q 176 172 162 140 q 147 108 127 41 q 119 13 114 0 q 85 0 74 -1 q 63 -2 36 -7 q 44 20 74 113 q 104 206 125 274 q 145 341 145 351 q 145 368 133 368 q 125 368 105 353 q 85 337 79 331 z"},"2":{"x_min":0,"x_max":468,"ha":468,"o":"m 188 528 l 156 528 q 172 574 190 631 q 225 655 259 671 q 294 687 341 687 q 412 687 452 646 q 492 605 492 545 q 492 500 475 457 q 458 414 418 362 q 378 311 311 245 q 244 179 139 87 l 114 66 l 274 66 q 313 66 332 70 q 350 73 363 85 q 375 97 394 128 q 398 137 401 139 l 436 139 q 433 129 426 118 q 424 112 408 75 q 392 39 383 18 q 374 -3 373 -5 q 343 -3 303 -2 q 243 0 185 0 q 139 0 119 0 q 99 0 70 -1 q 42 -2 27 -3 q 12 -4 -2 -5 l 6 22 q 200 189 314 321 q 408 430 408 522 q 408 566 383 591 q 358 616 319 616 q 245 616 188 528 z"},"{":{"x_min":0,"x_max":479,"ha":479,"o":"m 422 -199 l 422 -216 q 365 -208 324 -179 q 282 -150 260 -109 q 239 -68 239 -26 q 239 5 249 50 q 261 96 261 125 q 261 158 234 190 q 208 222 150 230 l 150 249 q 189 254 214 272 q 240 290 250 312 q 261 334 261 354 q 261 371 256 397 q 251 423 249 429 q 243 454 241 474 q 239 495 239 505 q 239 546 260 587 q 281 628 323 658 q 366 688 422 695 l 422 677 q 371 665 342 636 q 312 608 312 562 q 312 537 324 485 q 334 439 334 409 q 334 369 304 320 q 274 271 190 242 l 190 240 q 238 223 271 195 q 303 166 319 134 q 334 102 334 70 q 334 40 324 -6 q 312 -56 312 -83 q 312 -171 422 -199 z"},"9":{"x_min":0,"x_max":468,"ha":468,"o":"m 71 -17 l 60 17 q 275 123 383 311 l 381 313 q 335 274 301 252 q 266 230 238 230 q 200 230 171 252 q 142 273 127 311 q 112 349 112 394 q 112 460 146 529 q 180 598 240 643 q 299 688 371 688 q 439 688 477 642 q 515 597 515 523 q 515 449 485 369 q 456 289 398 213 q 340 138 257 77 q 174 17 71 -17 z m 434 524 q 434 594 406 619 q 377 645 347 645 q 302 645 267 609 q 232 573 215 517 q 197 461 197 406 q 197 340 222 316 q 248 293 273 293 q 300 293 338 316 q 376 339 405 391 q 434 443 434 524 z"}," ":{"x_min":0,"x_max":234,"ha":234,"o":""},"I":{"x_min":0,"x_max":354,"ha":354,"o":"m 470 676 l 461 646 q 460 646 456 645 q 451 644 447 643 q 442 643 441 642 q 394 633 379 625 q 364 617 357 601 q 344 568 320 490 q 295 413 271 328 q 247 244 233 188 q 232 186 217 124 q 201 62 201 58 q 201 51 207 46 q 211 42 279 27 q 295 24 295 24 l 286 -5 q 263 -3 228 -2 q 180 0 140 0 q 75 0 -7 -5 l 2 24 q 2 24 5 25 q 8 25 13 26 q 18 27 23 28 q 67 36 80 42 q 93 49 102 61 q 113 78 147 193 q 148 199 165 255 q 181 312 185 326 q 195 363 207 405 q 219 446 225 469 q 251 564 259 598 q 261 605 261 612 q 261 622 253 625 q 248 627 215 635 q 181 644 169 646 l 177 676 q 256 670 320 670 q 408 670 470 676 z"},"H":{"x_min":0,"x_max":740,"ha":740,"o":"m 164 647 l 172 676 q 266 670 320 670 q 374 670 463 676 l 455 647 q 410 639 388 632 q 366 626 356 613 q 344 597 319 512 l 280 377 q 413 375 459 375 q 506 375 593 377 q 596 388 601 405 q 605 421 617 464 l 624 490 q 655 593 655 610 q 655 621 647 626 q 634 634 580 643 q 565 646 561 647 l 570 676 q 609 673 638 671 q 667 670 716 670 q 765 670 793 671 q 822 673 861 676 l 854 647 q 853 646 839 644 q 787 634 772 626 q 757 619 751 604 q 742 584 724 530 q 707 475 689 417 q 672 360 667 341 q 653 292 638 238 q 623 184 614 150 q 604 115 600 101 q 597 87 592 68 q 592 65 592 63 q 591 62 591 59 q 591 48 601 44 q 612 39 668 27 q 677 24 684 24 l 677 -5 q 660 -4 619 -2 q 573 0 545 0 q 532 0 464 -2 q 414 -5 385 -5 l 392 24 q 401 24 408 27 q 462 38 476 45 q 489 51 496 68 q 510 102 535 184 q 559 265 577 328 q 551 328 528 328 q 505 329 479 329 q 453 330 424 330 q 395 330 365 330 q 326 330 302 329 q 279 329 266 328 q 260 309 260 308 q 194 69 194 61 q 194 47 210 41 q 227 34 270 27 q 288 24 287 24 l 280 -5 q 258 -3 221 -2 q 172 0 138 0 q 72 0 -11 -5 l -4 24 q 4 24 18 28 q 58 36 75 43 q 92 51 99 64 q 111 88 154 236 q 197 383 227 493 q 229 502 239 538 q 249 574 253 591 q 257 607 257 611 q 257 620 248 626 q 228 634 185 643 q 169 646 164 647 z"},"4":{"x_min":0,"x_max":468,"ha":468,"o":"m 155 -5 l 163 22 q 162 22 178 25 q 229 35 237 43 q 250 54 281 152 l 287 172 l 34 172 q 43 198 49 230 q 115 300 148 336 q 181 371 252 451 q 324 530 357 569 q 391 607 435 659 q 456 665 468 669 q 480 674 506 687 l 518 676 q 505 645 498 625 q 491 606 479 569 q 467 532 462 514 q 457 497 421 378 q 397 298 389 267 q 380 235 379 230 q 430 231 462 234 l 468 224 q 452 196 442 167 q 399 171 362 172 q 334 84 334 57 q 334 45 341 41 q 346 38 403 25 q 410 24 414 23 q 418 22 419 22 l 412 -5 q 390 -3 356 -2 q 314 0 286 0 q 235 0 155 -5 z m 347 495 l 202 333 q 121 244 109 230 q 246 228 304 230 l 320 280 l 357 401 q 396 524 410 564 l 408 566 q 396 552 382 535 q 367 518 347 495 z"},"~":{"x_min":0,"x_max":667,"ha":667,"o":"m 625 398 l 650 398 q 648 349 630 315 q 612 282 584 266 q 556 250 524 250 q 506 250 487 254 q 468 257 438 269 q 408 280 341 308 q 267 339 236 339 q 189 339 172 313 q 154 287 148 251 l 123 251 q 125 287 133 314 q 140 341 162 363 q 179 381 200 390 q 221 399 245 399 q 268 399 305 389 q 342 378 431 340 q 480 319 500 314 q 521 309 536 309 q 567 309 593 329 q 619 348 625 398 z"},"D":{"x_min":0,"x_max":729,"ha":729,"o":"m 161 647 l 168 676 q 184 675 194 674 q 204 673 219 672 q 261 670 294 670 q 330 670 409 673 q 444 676 500 676 q 612 676 685 621 q 758 566 758 436 q 758 374 737 311 q 716 248 675 191 q 633 134 572 89 q 498 33 422 14 q 347 -6 267 -6 q 254 -6 174 -2 q 171 -2 142 -1 q 112 0 94 0 q 62 0 -16 -5 l -7 24 q -4 24 17 29 q 61 38 73 44 q 85 49 93 62 q 108 85 144 211 l 170 302 q 172 312 178 333 q 188 364 203 421 q 234 538 239 549 q 254 600 254 613 q 254 621 246 626 q 242 628 218 634 q 194 640 180 642 q 178 643 174 644 q 169 645 166 646 q 162 646 161 647 z m 351 623 l 342 594 q 336 575 307 475 q 278 375 266 330 q 253 286 224 183 q 196 81 187 46 q 241 40 283 40 q 357 40 417 59 q 477 79 535 133 q 594 188 627 265 q 661 342 661 428 q 661 518 624 563 q 587 608 540 620 q 493 631 438 631 q 412 631 397 629 q 383 628 351 623 z"},"^":{"x_min":0,"x_max":427,"ha":427,"o":"m 287 712 l 494 362 l 439 362 l 276 639 l 112 362 l 56 362 l 265 712 z"},"0":{"x_min":0,"x_max":468,"ha":468,"o":"m 73 175 q 73 209 79 258 q 84 308 107 383 q 129 458 173 532 q 227 624 276 656 q 325 688 375 688 q 419 688 447 667 q 474 646 487 615 q 500 584 504 554 q 509 524 509 499 q 509 423 485 331 q 462 240 420 160 q 379 81 324 32 q 270 -17 209 -17 q 175 -17 144 1 q 113 19 93 62 q 73 105 73 175 z m 158 188 q 158 119 177 75 q 196 32 231 32 q 259 32 285 56 q 312 80 325 108 q 361 178 393 285 q 425 393 425 499 q 425 562 409 603 q 393 644 352 644 q 333 644 314 632 q 296 620 278 594 q 260 569 238 524 q 191 426 175 332 q 158 239 158 188 z"},"F":{"x_min":0,"x_max":583,"ha":583,"o":"m 164 647 l 172 676 q 251 670 324 670 q 406 670 460 670 q 515 671 570 672 q 625 673 699 676 q 672 591 656 497 l 620 497 q 621 515 622 530 q 622 545 623 555 q 623 565 623 583 q 623 612 613 619 q 602 625 573 625 l 351 625 l 278 372 q 373 372 399 374 q 426 375 437 384 q 455 396 483 464 l 518 464 q 495 396 479 338 q 462 280 448 219 l 414 219 q 415 220 417 242 q 422 282 422 301 q 422 319 408 325 q 395 330 332 330 l 266 330 q 243 248 219 157 q 195 67 195 56 q 195 47 201 45 q 207 42 292 27 q 312 24 314 24 l 306 -5 q 280 -3 244 -2 q 194 0 150 0 q 77 0 -13 -5 l -5 24 q -3 24 1 25 q 6 25 15 27 q 56 35 71 40 q 85 45 94 56 q 102 67 110 94 q 121 128 146 214 l 188 358 q 200 398 218 464 q 236 529 245 568 q 255 606 255 611 q 255 621 242 628 q 229 634 182 643 q 170 645 164 647 z"},"`":{"x_min":0,"x_max":333,"ha":333,"o":"m 334 518 l 308 518 q 246 594 233 609 q 220 625 206 640 q 192 655 167 680 l 171 688 q 208 687 268 688 q 272 677 273 674 q 274 671 278 661 q 283 649 294 620 q 306 590 320 556 q 333 521 334 518 z"},"k":{"x_min":0,"x_max":458,"ha":458,"o":"m 130 625 l 137 654 q 202 673 227 682 q 252 691 299 712 l 314 701 q 303 677 291 642 q 290 639 276 597 q 263 555 244 499 q 225 442 213 405 q 200 367 183 315 l 185 313 q 237 369 298 412 q 358 454 421 454 q 457 454 469 439 q 481 424 481 402 q 481 368 461 330 q 441 292 388 259 q 335 227 246 215 q 291 130 314 96 q 332 72 337 66 q 343 60 353 60 q 368 60 387 74 q 406 87 426 104 l 435 112 l 455 91 q 412 42 370 14 q 329 -14 312 -14 q 290 -14 278 12 q 227 106 215 127 q 203 148 176 192 l 164 212 l 155 212 q 151 199 142 166 q 133 133 122 96 q 112 59 110 50 l 96 0 q 53 0 18 -7 q 43 64 67 140 q 91 215 121 321 l 163 468 q 166 477 169 490 q 172 502 175 511 q 204 610 204 616 q 204 631 183 631 q 165 631 147 627 z m 163 245 q 266 242 322 267 q 377 293 394 325 q 411 357 411 383 q 411 410 385 410 q 359 410 324 387 q 288 365 272 351 q 246 331 206 294 q 167 257 163 245 z"},"u":{"x_min":0,"x_max":510,"ha":510,"o":"m 67 315 l 50 337 q 105 396 151 425 q 198 454 216 454 q 224 454 230 447 q 236 440 236 429 q 236 407 219 350 q 201 293 185 252 q 131 104 131 75 q 131 55 149 55 q 169 55 212 88 q 254 121 295 170 q 327 208 346 241 q 366 274 379 308 q 392 342 413 409 l 422 438 q 466 439 500 446 q 499 443 466 337 q 433 231 426 209 q 411 155 398 117 q 392 95 392 83 q 392 69 404 69 q 417 69 470 108 q 472 109 476 112 q 480 116 481 116 l 498 96 q 451 49 415 24 q 379 0 358 -7 q 338 -14 327 -14 q 318 -14 311 -7 q 303 0 303 10 q 303 26 311 53 q 318 81 332 117 q 346 153 369 212 l 367 214 q 301 121 226 53 q 151 -14 85 -14 q 70 -14 59 -5 q 47 5 47 25 q 47 47 58 84 q 88 180 111 250 q 134 320 140 337 q 143 345 143 353 q 143 358 141 361 q 138 364 133 364 q 119 364 67 315 z"},"]":{"x_min":0,"x_max":281,"ha":281,"o":"m -115 -201 l -104 -162 l -3 -162 q 2 -146 6 -132 q 10 -119 16 -101 q 22 -83 33 -44 q 44 -6 54 29 q 124 276 230 644 q 231 646 233 653 q 235 661 236 663 l 134 663 l 145 702 q 185 700 233 700 q 278 700 320 702 q 294 621 288 604 q 283 587 269 539 q 255 491 234 419 q 214 348 185 246 q 184 243 174 206 q 163 169 150 124 q 138 79 133 62 q 128 46 122 22 q 121 19 112 -15 q 103 -49 93 -85 q 83 -120 79 -134 q 76 -147 68 -177 q 65 -185 61 -201 q 15 -199 -23 -199 q -61 -199 -115 -201 z"},"U":{"x_min":0,"x_max":729,"ha":729,"o":"m 861 676 l 853 647 q 849 646 834 643 q 804 638 788 632 q 771 626 761 614 q 750 602 743 584 q 737 566 723 522 q 695 435 684 396 q 672 357 666 335 q 660 313 638 235 q 622 174 596 126 q 570 78 536 46 q 502 14 455 -3 q 408 -20 349 -20 q 272 -20 226 6 q 179 31 158 71 q 138 111 138 156 q 138 184 144 215 q 149 246 164 302 q 179 359 205 450 q 210 470 216 490 q 221 509 226 527 q 231 546 239 577 l 245 597 q 245 598 246 604 q 247 610 247 614 q 247 623 240 626 q 234 629 213 634 q 192 639 179 641 l 156 647 l 164 676 q 211 673 237 671 q 263 670 307 670 q 355 670 383 671 q 411 673 456 676 l 449 647 q 380 633 365 627 q 349 620 340 599 q 330 573 301 476 q 269 370 254 316 q 239 262 233 230 q 227 198 227 167 q 227 123 247 94 q 266 66 298 54 q 331 41 370 41 q 424 41 462 60 q 501 80 527 117 q 553 154 573 207 q 592 260 617 348 q 654 479 670 537 q 686 596 686 609 q 686 620 674 627 q 661 634 621 642 q 610 644 600 647 l 608 676 q 683 670 736 670 q 807 670 861 676 z"},"o":{"x_min":0,"x_max":438,"ha":438,"o":"m 39 143 q 39 207 64 265 q 90 322 131 365 q 173 408 220 431 q 268 454 309 454 q 358 454 385 425 q 413 396 422 359 q 431 322 431 290 q 431 228 406 173 q 382 118 340 75 q 299 32 250 9 q 202 -14 159 -14 q 97 -14 68 35 q 39 83 39 143 z m 117 151 q 117 108 135 69 q 152 31 200 31 q 243 31 278 68 q 313 106 333 167 q 354 227 354 290 q 354 331 340 371 q 326 412 276 412 q 233 412 197 369 q 160 326 139 263 q 117 201 117 151 z"},"N":{"x_min":0,"x_max":729,"ha":729,"o":"m 150 647 l 159 676 q 205 672 250 672 q 301 672 345 676 q 376 598 429 459 q 445 416 461 374 q 478 332 487 309 q 496 286 517 232 q 539 178 553 140 l 555 140 q 574 211 603 312 q 635 426 647 471 q 659 515 668 548 q 676 580 680 596 q 682 602 682 609 q 682 621 672 626 q 662 632 613 642 q 610 643 606 644 q 602 645 599 646 q 597 646 595 647 l 604 676 q 673 670 740 670 q 812 670 856 676 l 849 647 l 832 643 q 790 636 776 629 q 762 623 751 607 q 742 593 722 530 q 701 467 681 398 q 662 330 647 281 l 577 30 q 574 20 566 -16 l 529 -20 q 510 32 501 58 q 491 83 485 100 q 478 118 450 189 q 422 260 391 338 l 370 390 q 341 463 304 560 l 302 560 l 292 523 q 265 430 260 412 q 254 394 245 361 q 236 328 225 289 q 214 250 194 174 q 191 162 177 111 q 164 60 164 58 q 164 51 175 45 q 185 39 201 35 q 217 31 231 28 q 233 27 239 26 q 245 25 249 25 q 252 24 253 24 l 243 -5 q 226 -3 196 -2 q 161 0 128 0 q 72 0 -8 -5 l 1 24 q 6 24 22 28 q 65 36 81 46 q 97 57 107 83 q 118 112 137 175 q 157 238 185 332 q 212 425 223 463 q 238 517 262 598 q 264 606 264 613 q 264 620 258 624 q 251 629 226 634 q 202 639 180 641 z"},"+":{"x_min":0,"x_max":667,"ha":667,"o":"m 121 355 l 354 355 l 354 589 l 418 589 l 418 355 l 652 355 l 652 291 l 418 291 l 418 57 l 354 57 l 354 291 l 121 291 z"},"G":{"x_min":0,"x_max":719,"ha":719,"o":"m 682 477 l 647 477 q 647 482 645 532 q 643 581 643 582 q 638 611 601 629 q 564 646 519 646 q 445 646 382 609 q 319 572 274 511 q 229 449 205 376 q 181 303 181 233 q 181 171 202 126 q 224 81 263 57 q 302 32 355 32 q 437 32 510 73 l 551 214 q 556 230 556 232 q 558 235 559 244 q 561 252 561 258 q 561 272 546 277 q 515 287 477 296 l 486 325 q 549 320 610 320 q 645 320 758 325 l 750 296 q 747 296 740 294 q 734 292 731 292 q 683 281 670 272 q 656 263 648 239 q 615 143 596 47 q 535 23 489 9 q 443 -6 403 -13 q 362 -20 317 -20 q 221 -20 167 23 q 119 60 102 118 q 84 176 84 226 q 84 308 116 390 q 148 472 208 540 q 268 608 351 649 q 434 690 528 690 q 626 690 732 644 q 722 616 705 561 q 688 505 682 477 z"},"q":{"x_min":0,"x_max":448,"ha":448,"o":"m 363 -180 l 356 -209 q 296 -204 240 -204 q 174 -204 104 -209 l 112 -180 q 119 -178 128 -178 q 143 -176 156 -174 q 170 -171 182 -169 q 194 -166 199 -161 q 211 -149 244 -43 q 274 53 292 109 l 290 111 q 260 78 231 50 q 202 23 172 4 q 143 -14 118 -14 q 75 -14 54 25 q 33 64 33 116 q 33 204 80 282 q 126 361 199 407 q 272 454 342 454 q 375 454 426 441 q 450 435 465 435 l 470 423 q 456 399 445 373 q 435 347 422 309 q 410 271 362 116 q 354 91 345 61 q 336 31 322 -17 q 308 -65 299 -101 q 289 -137 289 -144 q 289 -159 302 -166 q 316 -174 363 -180 z m 378 394 q 338 412 309 412 q 272 412 237 391 q 202 370 173 329 q 145 289 129 235 q 113 182 113 123 q 113 98 121 73 q 130 49 155 49 q 176 49 203 70 q 230 91 242 104 q 275 137 294 167 q 312 198 324 230 q 336 262 365 355 q 374 383 378 394 z"},"d":{"x_min":0,"x_max":479,"ha":479,"o":"m 448 119 l 466 98 q 346 -14 302 -14 q 295 -14 286 -10 q 278 -5 278 11 q 278 17 282 33 q 286 49 290 66 q 295 83 299 98 l 308 131 l 306 133 q 265 81 212 33 q 159 -14 118 -14 q 84 -14 60 22 q 36 58 36 120 q 36 187 62 247 q 88 308 131 354 q 174 400 226 427 q 278 454 329 454 q 353 454 390 444 l 421 547 q 425 563 431 579 q 439 604 439 616 q 439 630 423 630 q 404 630 367 624 l 374 652 q 402 661 418 666 q 435 671 457 679 q 479 686 485 688 q 495 692 510 699 q 525 706 538 712 l 554 700 q 542 673 532 647 q 513 595 500 554 q 486 513 470 462 q 454 412 443 377 q 404 253 393 214 q 381 175 372 140 q 363 105 363 89 q 363 73 375 73 q 387 73 431 106 z m 373 382 q 330 408 290 408 q 242 408 210 375 q 165 329 141 263 q 116 197 116 136 q 116 96 128 72 q 139 49 157 49 q 178 49 204 71 q 229 92 251 114 q 292 159 314 207 q 336 254 362 344 q 363 352 373 382 z"},"1":{"x_min":0,"x_max":468,"ha":468,"o":"m 234 573 l 241 603 q 366 647 430 687 l 444 676 q 428 635 418 606 q 408 577 389 517 q 370 457 351 390 q 331 323 298 209 q 258 69 258 55 q 258 49 261 46 q 264 42 271 38 q 281 33 344 22 l 335 -5 q 318 -3 288 -2 q 248 0 217 0 q 194 0 77 -5 l 85 22 q 86 22 98 25 q 124 30 138 34 q 152 38 158 43 q 164 47 169 57 q 180 79 199 137 q 219 196 237 259 q 256 322 269 370 l 321 551 q 325 566 325 570 q 325 577 321 582 q 316 587 309 587 q 297 587 250 577 q 236 574 234 573 z"},"5":{"x_min":0,"x_max":468,"ha":468,"o":"m 512 673 l 517 662 q 498 631 483 593 q 455 596 415 596 q 374 597 283 598 q 275 583 268 567 q 261 551 251 528 q 241 505 233 486 q 270 483 299 477 q 329 470 359 451 q 400 425 420 383 q 440 340 440 287 q 440 226 418 171 q 396 116 355 73 q 314 30 261 7 q 208 -17 148 -17 q 111 -17 88 -10 q 65 -2 43 10 q 64 59 82 116 l 108 116 q 118 35 191 35 q 240 35 280 66 q 319 96 342 145 q 364 194 364 247 q 364 322 324 368 q 284 415 218 415 q 197 415 173 409 l 158 424 l 170 448 q 208 529 220 555 q 231 581 257 650 l 264 670 q 352 668 402 668 q 449 668 470 669 q 491 670 512 673 z"}}}
